<svg width="737" height="97" viewBox="0 0 737 97" fill="none" xmlns="http://www.w3.org/2000/svg">
<circle cx="37.1808" cy="42.9563" r="31.517" fill="white"/>
<path d="M54.2477 34.7423L20.3197 43.8027V35.3176L54.2477 26.2571V34.7423Z" fill="#ED6A5B"/>
<path d="M54.2477 50.8486L20.3197 59.909V51.4238L54.2477 42.3634V50.8486Z" fill="#007270"/>
<path d="M37.2825 13.4116C20.9414 13.4116 7.61942 26.7386 7.61942 43.0857C7.61942 59.4329 20.9414 72.7598 37.2825 72.7598C53.6235 72.7598 66.9455 59.4329 66.9455 43.0857C66.9455 26.7386 53.6714 13.4116 37.2825 13.4116ZM37.2825 80.3821C16.7244 80.3821 0 63.6515 0 43.0857C0 22.52 16.7244 5.78937 37.2825 5.78937C57.8405 5.78937 74.5649 22.52 74.5649 43.0857C74.5649 63.6515 57.8405 80.3821 37.2825 80.3821Z" fill="#00AFCB"/>
<path d="M113.098 47.7371H105.67V58.2836H113.002C116.692 58.2836 119.951 57.0372 119.951 52.7227C119.951 48.6 116.5 47.7371 113.098 47.7371ZM111.373 26.3564H105.67V35.3689H111.325C114.536 35.3689 117.171 34.4101 117.171 30.7668C117.171 27.0755 114.392 26.3564 111.373 26.3564ZM128.816 66.2894C122.874 71.3709 117.411 71.275 109.887 71.275H91.4857V13.365H109.312C116.261 13.365 122.826 13.4609 127.858 19.0218C130.302 21.7063 131.308 24.9662 131.308 28.5616C131.308 33.4993 128.864 37.8138 124.599 40.2107C130.925 42.4159 134.135 47.1139 134.135 53.6815C134.135 58.3316 132.41 63.2213 128.816 66.2894Z" fill="black"/>
<path d="M164.85 71.323V47.6892C164.85 42.9912 163.508 38.6287 157.901 38.6287C152.294 38.6287 150.617 42.32 150.617 47.2577V71.3709H137.631V13.365H150.617V31.8214H150.761C153.013 27.7466 157.566 26.3564 161.927 26.3564C166.287 26.3564 170.936 27.8425 173.763 31.1503C177.932 35.9442 177.836 41.0736 177.836 47.018V71.275H164.85V71.323Z" fill="black"/>
<path d="M204.872 38.531C198.547 38.531 194.138 43.5167 194.138 49.7008C194.138 55.8849 198.834 60.6788 204.92 60.6788C211.006 60.6788 215.798 55.8369 215.798 49.557C215.798 43.1811 211.198 38.531 204.872 38.531ZM215.798 71.3212V66.6232H215.654C213.306 71.0815 207.7 72.8073 203.003 72.8073C189.633 72.8073 181.199 62.5004 181.199 49.557C181.199 36.6135 189.969 26.4025 203.003 26.4025C207.795 26.4025 213.115 28.2242 215.654 32.4907H215.798V27.8886H228.785V71.3212H215.798Z" fill="black"/>
<path d="M247.273 47.4477V71.3212H234.287V27.8886H246.507V32.4907H246.65C248.903 28.0324 252.497 26.4025 257.529 26.4025V39.4898C251.778 39.5857 247.273 40.6883 247.273 47.4477Z" fill="black"/>
<path d="M281.824 38.531C275.498 38.531 271.09 43.5167 271.09 49.7008C271.09 55.8849 275.786 60.6788 281.872 60.6788C287.958 60.6788 292.75 55.8369 292.75 49.557C292.798 43.1811 288.15 38.531 281.824 38.531ZM292.798 71.3212V66.6232H292.654C290.306 71.0815 284.651 72.8073 280.003 72.8073C266.633 72.8073 258.151 62.5004 258.151 49.557C258.151 36.6135 266.921 26.4025 280.003 26.4025C284.795 26.4025 290.114 28.2242 292.654 32.4907H292.798V27.8886H305.784V71.3212H292.798Z" fill="black"/>
<path d="M329.264 37.718V71.3231H316.277V37.718H309.856V27.8426H316.277V13.3651H329.264V27.8426H335.494V37.718H329.264Z" fill="black"/>
<path d="M361.321 26.3564H355.858V40.1148H361.896C366.736 40.1148 371.145 39.0122 371.145 33.1637C371.097 27.1714 366.161 26.3564 361.321 26.3564ZM379.148 48.1206C374.164 52.483 368.749 53.1062 362.232 53.1062H355.81V71.275H341.674V13.365H360.603C366.545 13.365 373.685 13.6047 378.429 17.5836C382.982 21.4187 385.234 26.9796 385.234 32.924C385.282 38.2932 383.221 44.5252 379.148 48.1206Z" fill="#00AFCB"/>
<path d="M407.859 37.3356C403.163 37.3356 399.041 40.0681 397.987 44.7661H417.683C416.724 40.0681 412.555 37.3356 407.859 37.3356ZM430.43 53.5389H397.891C398.658 58.7163 402.971 61.7365 408.051 61.7365C411.549 61.7365 413.849 60.3462 415.957 57.6617H429.28C425.542 66.3386 417.874 72.6665 408.098 72.6665C395.447 72.6665 385.096 62.3597 385.096 49.6559C385.096 36.9521 395.112 26.3097 407.859 26.3097C420.606 26.3097 430.765 36.9521 430.765 50.0394C430.717 51.2858 430.621 52.3405 430.43 53.5389Z" fill="#00AFCB"/>
<path d="M475.917 48.3321C475.917 43.9154 476.935 39.9534 478.97 36.446C481.048 32.9387 483.841 30.2107 487.349 28.2622C490.899 26.2703 494.775 25.2744 498.975 25.2744C503.781 25.2744 508.046 26.4652 511.77 28.8467C515.538 31.185 518.265 34.5191 519.954 38.8492H511.056C509.887 36.4677 508.263 34.6923 506.185 33.5232C504.106 32.3541 501.703 31.7695 498.975 31.7695C495.987 31.7695 493.324 32.4407 490.986 33.783C488.648 35.1253 486.807 37.0522 485.465 39.5637C484.166 42.0751 483.517 44.9979 483.517 48.3321C483.517 51.6662 484.166 54.589 485.465 57.1005C486.807 59.6119 488.648 61.5604 490.986 62.9461C493.324 64.2884 495.987 64.9595 498.975 64.9595C501.703 64.9595 504.106 64.375 506.185 63.2059C508.263 62.0367 509.887 60.2614 511.056 57.8799H519.954C518.265 62.21 515.538 65.5441 511.77 67.8823C508.046 70.2206 503.781 71.3897 498.975 71.3897C494.732 71.3897 490.856 70.4154 487.349 68.4669C483.841 66.4751 481.048 63.7255 478.97 60.2181C476.935 56.7108 475.917 52.7487 475.917 48.3321ZM555.836 61.7769H536.935L533.687 71H525.958L542.131 25.794H550.704L566.877 71H559.083L555.836 61.7769ZM553.757 55.7365L546.418 34.7573L539.013 55.7365H553.757ZM605.476 39.3039C605.476 41.5988 604.934 43.7638 603.852 45.799C602.769 47.8341 601.037 49.5012 598.656 50.8002C596.274 52.0559 593.221 52.6838 589.498 52.6838H581.314V71H573.909V25.859H589.498C592.962 25.859 595.884 26.4652 598.266 27.6776C600.691 28.8467 602.488 30.4489 603.657 32.484C604.869 34.5191 605.476 36.7924 605.476 39.3039ZM589.498 46.6433C592.312 46.6433 594.412 46.0155 595.798 44.7598C597.183 43.4607 597.876 41.6421 597.876 39.3039C597.876 34.3676 595.083 31.8994 589.498 31.8994H581.314V46.6433H589.498ZM619.942 25.859V71H612.537V25.859H619.942ZM658.826 25.859V31.8994H646.81V71H639.406V31.8994H627.325V25.859H658.826ZM693.54 61.7769H674.639L671.391 71H663.662L679.835 25.794H688.408L704.581 71H696.787L693.54 61.7769ZM691.461 55.7365L684.122 34.7573L676.717 55.7365H691.461ZM719.018 65.0245H734.281V71H711.613V25.859H719.018V65.0245Z" fill="black"/>
<path d="M454.108 9.98029L454.245 74.1568" stroke="black" stroke-width="1.66339"/>
</svg>
