<svg width="25" height="24" viewBox="0 0 25 24" fill="none" xmlns="http://www.w3.org/2000/svg">
<path fill-rule="evenodd" clip-rule="evenodd" d="M4.29199 1.06046C4.29199 0.788331 4.5145 0.565308 4.78714 0.565308H15.5521L17.4677 3.95413L20.7497 5.76287C20.7497 11.1988 20.7497 16.6342 20.7497 22.0702C20.7497 22.3423 20.5272 22.5653 20.2545 22.5653H4.78714C4.51502 22.5653 4.29199 22.3428 4.29199 22.0702C4.2925 15.0664 4.2925 8.06318 4.29199 1.06046Z" fill="#F1F5F9"/>
<path fill-rule="evenodd" clip-rule="evenodd" d="M15.5527 0.565308L20.7503 5.76287H15.9686C15.74 5.76287 15.5527 5.57565 15.5527 5.347V0.565308Z" fill="#CBD5E1"/>
<path d="M7.65276 4.27222C7.5172 4.27222 7.40723 4.38219 7.40723 4.51775C7.40723 4.6533 7.5172 4.76328 7.65276 4.76328H14.1261C14.2616 4.76328 14.3716 4.6533 14.3716 4.51775C14.3716 4.38219 14.2616 4.27222 14.1261 4.27222H7.65276ZM7.65276 10.3798C7.5172 10.3798 7.40723 10.4898 7.40723 10.6253C7.40723 10.7609 7.5172 10.8708 7.65276 10.8708H17.3906C17.5261 10.8708 17.6361 10.7609 17.6361 10.6253C17.6361 10.4898 17.5261 10.3798 17.3906 10.3798H7.65276ZM7.65276 8.34392C7.5172 8.34392 7.40723 8.4539 7.40723 8.58945C7.40723 8.72501 7.5172 8.83498 7.65276 8.83498H17.3906C17.5261 8.83498 17.6361 8.72501 17.6361 8.58945C17.6361 8.4539 17.5261 8.34392 17.3906 8.34392H7.65276ZM7.65276 6.30807C7.5172 6.30807 7.40723 6.41805 7.40723 6.5536C7.40723 6.68915 7.5172 6.79913 7.65276 6.79913H14.1261C14.2616 6.79913 14.3716 6.68915 14.3716 6.5536C14.3716 6.41805 14.2616 6.30807 14.1261 6.30807H7.65276Z" fill="#64748B"/>
<path fill-rule="evenodd" clip-rule="evenodd" d="M3.88199 11.9462H21.5019C21.713 11.9462 21.8839 12.1364 21.8839 12.3713V20.2752C21.8839 20.5102 21.713 20.7004 21.5019 20.7004H3.88199C3.67093 20.7004 3.5 20.5102 3.5 20.2752V12.3713C3.5 12.1364 3.67093 11.9462 3.88199 11.9462Z" fill="#1D4ED8"/>
<path d="M7.76027 13.6194C8.2267 13.6194 8.63429 13.7097 8.98306 13.8904C9.33603 14.0669 9.60706 14.3232 9.79616 14.6594C9.98945 14.9913 10.0861 15.38 10.0861 15.8254C10.0861 16.2709 9.98945 16.6575 9.79616 16.9852C9.60706 17.313 9.33603 17.5651 8.98306 17.7416C8.63429 17.9139 8.2267 18 7.76027 18H6.32948V13.6194H7.76027ZM7.76027 17.4138C8.27292 17.4138 8.66581 17.2751 8.93894 16.9978C9.21207 16.7205 9.34864 16.3297 9.34864 15.8254C9.34864 15.317 9.21207 14.9199 8.93894 14.6342C8.66581 14.3484 8.27292 14.2056 7.76027 14.2056H7.04803V17.4138H7.76027ZM12.7963 18.0441C12.3887 18.0441 12.0126 17.9496 11.6681 17.7605C11.3277 17.5672 11.0567 17.3004 10.855 16.96C10.6575 16.6154 10.5587 16.2288 10.5587 15.8002C10.5587 15.3716 10.6575 14.9871 10.855 14.6468C11.0567 14.3064 11.3277 14.0417 11.6681 13.8526C12.0126 13.6593 12.3887 13.5627 12.7963 13.5627C13.2081 13.5627 13.5842 13.6593 13.9246 13.8526C14.2691 14.0417 14.5402 14.3064 14.7376 14.6468C14.9351 14.9871 15.0339 15.3716 15.0339 15.8002C15.0339 16.2288 14.9351 16.6154 14.7376 16.96C14.5402 17.3004 14.2691 17.5672 13.9246 17.7605C13.5842 17.9496 13.2081 18.0441 12.7963 18.0441ZM12.7963 17.4201C13.0862 17.4201 13.3447 17.355 13.5716 17.2247C13.7985 17.0903 13.975 16.9012 14.101 16.6575C14.2313 16.4095 14.2964 16.1238 14.2964 15.8002C14.2964 15.4767 14.2313 15.193 14.101 14.9493C13.975 14.7056 13.7985 14.5186 13.5716 14.3884C13.3447 14.2581 13.0862 14.193 12.7963 14.193C12.5064 14.193 12.2479 14.2581 12.021 14.3884C11.7941 14.5186 11.6155 14.7056 11.4853 14.9493C11.3592 15.193 11.2962 15.4767 11.2962 15.8002C11.2962 16.1238 11.3592 16.4095 11.4853 16.6575C11.6155 16.9012 11.7941 17.0903 12.021 17.2247C12.2479 17.355 12.5064 17.4201 12.7963 17.4201ZM15.5014 15.8002C15.5014 15.3716 15.6002 14.9871 15.7977 14.6468C15.9994 14.3064 16.2704 14.0417 16.6108 13.8526C16.9554 13.6593 17.3314 13.5627 17.739 13.5627C18.2055 13.5627 18.6194 13.6782 18.9807 13.9093C19.3463 14.1362 19.611 14.4598 19.7749 14.88H18.9114C18.7979 14.6489 18.6404 14.4766 18.4387 14.3631C18.237 14.2497 18.0038 14.193 17.739 14.193C17.4491 14.193 17.1907 14.2581 16.9638 14.3884C16.7368 14.5186 16.5583 14.7056 16.428 14.9493C16.3019 15.193 16.2389 15.4767 16.2389 15.8002C16.2389 16.1238 16.3019 16.4074 16.428 16.6511C16.5583 16.8949 16.7368 17.084 16.9638 17.2184C17.1907 17.3487 17.4491 17.4138 17.739 17.4138C18.0038 17.4138 18.237 17.3571 18.4387 17.2436C18.6404 17.1302 18.7979 16.9579 18.9114 16.7268H19.7749C19.611 17.147 19.3463 17.4705 18.9807 17.6975C18.6194 17.9244 18.2055 18.0378 17.739 18.0378C17.3272 18.0378 16.9512 17.9433 16.6108 17.7542C16.2704 17.5609 15.9994 17.2941 15.7977 16.9537C15.6002 16.6133 15.5014 16.2288 15.5014 15.8002Z" fill="white"/>
</svg>
