<svg width="24" height="25" viewBox="0 0 24 25" fill="none" xmlns="http://www.w3.org/2000/svg">
<path d="M4.00244 20.3672C3.45244 20.3672 2.98161 20.1714 2.58994 19.7797C2.19827 19.388 2.00244 18.9172 2.00244 18.3672V6.36719C2.00244 5.81719 2.19827 5.34635 2.58994 4.95469C2.98161 4.56302 3.45244 4.36719 4.00244 4.36719H20.0024C20.5524 4.36719 21.0233 4.56302 21.4149 4.95469C21.8066 5.34635 22.0024 5.81719 22.0024 6.36719V18.3672C22.0024 18.9172 21.8066 19.388 21.4149 19.7797C21.0233 20.1714 20.5524 20.3672 20.0024 20.3672H4.00244ZM12.0024 13.3672L4.00244 8.36719V18.3672H20.0024V8.36719L12.0024 13.3672ZM12.0024 11.3672L20.0024 6.36719H4.00244L12.0024 11.3672ZM4.00244 8.36719V6.36719V18.3672V8.36719Z" fill="#7B7B7B"/>
</svg>
