<svg width="24" height="25" viewBox="0 0 24 25" fill="none" xmlns="http://www.w3.org/2000/svg">
<path d="M19.9524 21.3672C17.8691 21.3672 15.8108 20.913 13.7774 20.0047C11.7441 19.0964 9.89411 17.8089 8.22744 16.1422C6.56077 14.4755 5.27327 12.6255 4.36494 10.5922C3.45661 8.55885 3.00244 6.50052 3.00244 4.41719C3.00244 4.11719 3.10244 3.86719 3.30244 3.66719C3.50244 3.46719 3.75244 3.36719 4.05244 3.36719H8.10244C8.33577 3.36719 8.54411 3.44635 8.72744 3.60469C8.91077 3.76302 9.01911 3.95052 9.05244 4.16719L9.70244 7.66719C9.73577 7.93385 9.72744 8.15885 9.67744 8.34219C9.62744 8.52552 9.53577 8.68385 9.40244 8.81719L6.97744 11.2672C7.31077 11.8839 7.70661 12.4797 8.16494 13.0547C8.62327 13.6297 9.12744 14.1839 9.67744 14.7172C10.1941 15.2339 10.7358 15.713 11.3024 16.1547C11.8691 16.5964 12.4691 17.0005 13.1024 17.3672L15.4524 15.0172C15.6024 14.8672 15.7983 14.7547 16.0399 14.6797C16.2816 14.6047 16.5191 14.5839 16.7524 14.6172L20.2024 15.3172C20.4358 15.3839 20.6274 15.5047 20.7774 15.6797C20.9274 15.8547 21.0024 16.0505 21.0024 16.2672V20.3172C21.0024 20.6172 20.9024 20.8672 20.7024 21.0672C20.5024 21.2672 20.2524 21.3672 19.9524 21.3672ZM6.02744 9.36719L7.67744 7.71719L7.25244 5.36719H5.02744C5.11077 6.05052 5.22744 6.72552 5.37744 7.39219C5.52744 8.05885 5.74411 8.71719 6.02744 9.36719ZM14.9774 18.3172C15.6274 18.6005 16.2899 18.8255 16.9649 18.9922C17.6399 19.1589 18.3191 19.2672 19.0024 19.3172V17.1172L16.6524 16.6422L14.9774 18.3172Z" fill="#7B7B7B"/>
</svg>
